<svg xmlns="http://www.w3.org/2000/svg" viewBox="0 0 45.28 37.88"><title>PGF-icon</title><path d="M22.64,12v2h2.7a2.88,2.88,0,1,1-2.7-3.88,2.79,2.79,0,0,1,1.43.4l1-1.73a4.74,4.74,0,0,0-2.43-.67A4.88,4.88,0,1,0,27.52,13V12Z" fill="#ed1846"/><path d="M14.8,23.39A2.07,2.07,0,0,1,14.19,25a2.12,2.12,0,0,1-3-3,2.09,2.09,0,0,1,1.5-.62h.07a1.39,1.39,0,0,0-.4,1,1.43,1.43,0,0,0,1.42,1.43A1.4,1.4,0,0,0,14.8,23.39Z" fill="#ed1846"/><path d="M45.28,7.46A7,7,0,0,0,32.94,3.05a18.92,18.92,0,0,0-20.6,0,7,7,0,1,0-8,10.87,18.94,18.94,0,1,0,36.52,0A6.94,6.94,0,0,0,45.28,7.46ZM10,26.27a3.86,3.86,0,0,1,0-5.48,4,4,0,0,1,5.48,0A3.87,3.87,0,1,1,10,26.27Zm25.39,0a3.87,3.87,0,0,1-5.47-5.48,3.94,3.94,0,0,1,5.47,0,3.84,3.84,0,0,1,0,5.48Zm4.84-3.54-4-4a5.92,5.92,0,0,0-8.37,8.37l6,6a17.9,17.9,0,0,1-22.18,0l6-6a5.93,5.93,0,0,0,0-8.37,5.94,5.94,0,0,0-8.37,0l-4.05,4a18.11,18.11,0,0,1,.23-8.52,18,18,0,0,1,7.6-10.35,17.86,17.86,0,0,1,19.42,0,18,18,0,0,1,8.23,15.07A18.18,18.18,0,0,1,40.18,22.73Z" fill="#ed1846"/><path d="M28.66,29.24a3.26,3.26,0,0,1-6,1.74,3.22,3.22,0,0,1-2.75,1.52,3.27,3.27,0,0,1-3.27-3.26h1a2.26,2.26,0,0,0,4.46.53l-2.49-2.64H25.7l-2.5,2.64a2.26,2.26,0,0,0,4.46-.53Z" fill="#ed1846"/><path d="M32.46,21.42a2.24,2.24,0,0,0-.73.18A1.83,1.83,0,0,1,32.46,21.42Z" fill="#ed1846"/><path d="M34.72,23.53A2.06,2.06,0,0,1,34.1,25a2.12,2.12,0,0,1-3-3,2.16,2.16,0,0,1,.33-.27,2.19,2.19,0,0,1,.3-.16,2.24,2.24,0,0,1,.73-.18,1.43,1.43,0,1,0,2.23,1.77A1.87,1.87,0,0,1,34.72,23.53Z" fill="#ed1846"/><path d="M27.52,12v1a4.88,4.88,0,1,1-4.88-4.88,4.74,4.74,0,0,1,2.43.67l-1,1.73a2.79,2.79,0,0,0-1.43-.4A2.88,2.88,0,1,0,25.34,14h-2.7V12Z" fill="#ed1846"/></svg>