<svg xmlns="http://www.w3.org/2000/svg" viewBox="0 0 177.45 37.88"><title>PGF-logo</title><path d="M22.64,12v2h2.7a2.88,2.88,0,1,1-2.7-3.88,2.79,2.79,0,0,1,1.43.4l1-1.73a4.74,4.74,0,0,0-2.43-.67A4.88,4.88,0,1,0,27.52,13V12Z" fill="#ed1846"/><path d="M55.44,12.18H51.59A1.5,1.5,0,0,0,50,13.86V25.91q0,1.5,1.59,1.5a1.41,1.41,0,0,0,1.59-1.5V22.39h2.35c3.34-.22,5.13-1.92,5.35-5.1C60.66,14.11,58.84,12.41,55.44,12.18Zm-.08,7.37H53.18V15h2.18a2.18,2.18,0,0,1,2.17,2.26A2.11,2.11,0,0,1,55.36,19.55Z" fill="#ed1846"/><path d="M63.22,10.93a1.57,1.57,0,0,0-1.5,1.67V25.82c.05,1.06.56,1.59,1.5,1.59s1.48-.53,1.59-1.59V12.6A1.68,1.68,0,0,0,63.22,10.93Z" fill="#ed1846"/><path d="M75.53,15.87A1.51,1.51,0,0,0,74,17.21a3.65,3.65,0,0,0-2.93-1.43q-4.77.51-5.1,5.94c.16,3.69,1.86,5.61,5.1,5.78A3.84,3.84,0,0,0,74,26.24a1.38,1.38,0,0,0,1.51,1.17c1,0,1.47-.64,1.42-1.92V17.87C77,16.54,76.53,15.87,75.53,15.87Zm-4,9c-1.51-.05-2.32-1.09-2.43-3.1q.17-2.92,2.43-3.09,2.17.16,2.43,3.09C73.77,23.68,73,24.71,71.51,24.82Z" fill="#ed1846"/><path d="M86.66,15.87A1.53,1.53,0,0,0,85.15,17l-2.26,5.86L80.71,17a1.64,1.64,0,0,0-1.5-1.08c-.9.16-1.37.61-1.42,1.34a3.28,3.28,0,0,0,.08.83l3.43,8.45L80,29.67c-.06,0-.08,0-.08.09a4.82,4.82,0,0,0-.09.83c.06.84.59,1.29,1.59,1.34a1.76,1.76,0,0,0,1.43-1.25L88,18a7.45,7.45,0,0,0,.17-.83A1.6,1.6,0,0,0,86.66,15.87Z" fill="#ed1846"/><path d="M100.88,18.38h-3.6c-1,.11-1.45.58-1.5,1.42a1.33,1.33,0,0,0,1.5,1.51h2.18c-.11,2.17-1.34,3.32-3.68,3.43q-3.86-.16-4-4.94.17-4.68,4-4.94a5.49,5.49,0,0,1,3.09,1,2.72,2.72,0,0,0,1.51.58c.84-.05,1.28-.55,1.34-1.5-.5-1.79-2.48-2.79-5.94-3q-6.87.59-7.37,7.87.42,7.36,7.37,7.7,6.6-.26,7-7C102.81,19.08,102.16,18.38,100.88,18.38Z" fill="#ed1846"/><path d="M113.1,15.87a1.51,1.51,0,0,0-1.51,1.34,3.64,3.64,0,0,0-2.93-1.43q-4.77.51-5.1,5.94c.17,3.69,1.87,5.61,5.1,5.78a3.84,3.84,0,0,0,2.93-1.26,1.38,1.38,0,0,0,1.51,1.17c1,0,1.48-.64,1.42-1.92V17.87C114.58,16.54,114.1,15.87,113.1,15.87Zm-4,9c-1.5-.05-2.31-1.09-2.42-3.1.11-1.95.92-3,2.42-3.09q2.17.16,2.43,3.09C111.34,23.68,110.53,24.71,109.08,24.82Z" fill="#ed1846"/><path d="M128.5,15.78a5.75,5.75,0,0,0-3.27,1.51,4.15,4.15,0,0,0-3.18-1.51A3.74,3.74,0,0,0,119.21,17a1.41,1.41,0,0,0-1.42-1.17,1.57,1.57,0,0,0-1.59,1.75v8.2a1.45,1.45,0,0,0,1.59,1.59c.94,0,1.45-.53,1.5-1.59V20.47c0-1.39.61-2.12,1.84-2.18,1.12.12,1.73.84,1.84,2.18v5.35c0,1.06.51,1.59,1.51,1.59s1.45-.53,1.51-1.59V20.47c.05-1.34.67-2.06,1.84-2.18,1.11.12,1.73.84,1.84,2.18v5.35q0,1.59,1.5,1.59t1.59-1.59V19.88C132.65,17.26,131.23,15.9,128.5,15.78Z" fill="#ed1846"/><path d="M143.39,23.73a2.85,2.85,0,0,0-1.25.5,4.83,4.83,0,0,1-2.26.76A2.7,2.7,0,0,1,137,22.73h6.61c.89.05,1.34-.39,1.34-1.34q-.68-5.1-5.53-5.61-5.1.51-5.52,5.94c.17,3.74,2.09,5.67,5.78,5.78,3-.17,4.63-1,5-2.43A1.42,1.42,0,0,0,143.39,23.73Zm-4-5.44q2,.09,2.43,2.43h-4.94A2.55,2.55,0,0,1,139.37,18.29Z" fill="#ed1846"/><path d="M153.18,12.18h-5.52a1.61,1.61,0,0,0-1.59,1.68V25.91q0,1.5,1.59,1.5a1.42,1.42,0,0,0,1.59-1.5V21.22h3.35q1.34,0,1.5-1.5a1.5,1.5,0,0,0-1.5-1.51h-3.35v-3.1h3.93c.89,0,1.37-.5,1.42-1.5A1.43,1.43,0,0,0,153.18,12.18Z" fill="#ed1846"/><path d="M164,15.87a1.54,1.54,0,0,0-1.51,1.75v5.53a1.89,1.89,0,0,1-2,1.92,1.84,1.84,0,0,1-2-1.92V17.62c0-1.11-.55-1.7-1.5-1.75a1.58,1.58,0,0,0-1.59,1.75v5.53c0,2.84,1.76,4.29,5.1,4.35s5-1.51,5.11-4.35V17.62A1.65,1.65,0,0,0,164,15.87Z" fill="#ed1846"/><path d="M173.18,15.78A3.26,3.26,0,0,0,170.25,17a1.4,1.4,0,0,0-1.42-1.17,1.58,1.58,0,0,0-1.59,1.75v8.2q.09,1.59,1.59,1.59c.95,0,1.45-.53,1.51-1.59V20.47a2,2,0,0,1,2-2.18,2.08,2.08,0,0,1,2,2.18v5.35c.06,1.06.56,1.59,1.51,1.59s1.48-.53,1.59-1.59V19.88Q177.2,16,173.18,15.78Z" fill="#ed1846"/><path d="M14.8,23.39A2.07,2.07,0,0,1,14.19,25a2.12,2.12,0,0,1-3-3,2.09,2.09,0,0,1,1.5-.62h.07a1.39,1.39,0,0,0-.4,1,1.43,1.43,0,0,0,1.42,1.43A1.4,1.4,0,0,0,14.8,23.39Z" fill="#ed1846"/><path d="M45.28,7.46A7,7,0,0,0,32.94,3.05a18.92,18.92,0,0,0-20.6,0,7,7,0,1,0-8,10.87,18.94,18.94,0,1,0,36.52,0A6.94,6.94,0,0,0,45.28,7.46ZM10,26.27a3.86,3.86,0,0,1,0-5.48,4,4,0,0,1,5.48,0A3.87,3.87,0,1,1,10,26.27Zm25.39,0a3.87,3.87,0,0,1-5.47-5.48,3.94,3.94,0,0,1,5.47,0,3.84,3.84,0,0,1,0,5.48Zm4.84-3.54-4-4a5.92,5.92,0,0,0-8.37,8.37l6,6a17.9,17.9,0,0,1-22.18,0l6-6a5.93,5.93,0,0,0,0-8.37,5.94,5.94,0,0,0-8.37,0l-4.05,4a18.11,18.11,0,0,1,.23-8.52,18,18,0,0,1,7.6-10.35,17.86,17.86,0,0,1,19.42,0,18,18,0,0,1,8.23,15.07A18.18,18.18,0,0,1,40.18,22.73Z" fill="#ed1846"/><path d="M28.66,29.24a3.26,3.26,0,0,1-6,1.74,3.22,3.22,0,0,1-2.75,1.52,3.27,3.27,0,0,1-3.27-3.26h1a2.26,2.26,0,0,0,4.46.53l-2.49-2.64H25.7l-2.5,2.64a2.26,2.26,0,0,0,4.46-.53Z" fill="#ed1846"/><path d="M32.46,21.42a2.24,2.24,0,0,0-.73.18A1.83,1.83,0,0,1,32.46,21.42Z" fill="#ed1846"/><path d="M34.72,23.53A2.06,2.06,0,0,1,34.1,25a2.12,2.12,0,0,1-3-3,2.16,2.16,0,0,1,.33-.27,2.19,2.19,0,0,1,.3-.16,2.24,2.24,0,0,1,.73-.18,1.43,1.43,0,1,0,2.23,1.77A1.87,1.87,0,0,1,34.72,23.53Z" fill="#ed1846"/><path d="M27.52,12v1a4.88,4.88,0,1,1-4.88-4.88,4.74,4.74,0,0,1,2.43.67l-1,1.73a2.79,2.79,0,0,0-1.43-.4A2.88,2.88,0,1,0,25.34,14h-2.7V12Z" fill="#ed1846"/></svg>